<?xml version="1.0" standalone="no"?>
<!DOCTYPE svg PUBLIC "-//W3C//DTD SVG 20010904//EN"
 "http://www.w3.org/TR/2001/REC-SVG-20010904/DTD/svg10.dtd">
<svg version="1.0" xmlns="http://www.w3.org/2000/svg"
 width="1000.000000pt" height="1000.000000pt" viewBox="0 0 1000.000000 1000.000000"
 preserveAspectRatio="xMidYMid meet">

<g transform="translate(0.000000,1000.000000) scale(0.100000,-0.100000)"
fill="#000000" stroke="none">
<path d="M3688 6817 c-284 -353 -669 -833 -857 -1066 -187 -234 -339 -426
-338 -427 1 -1 45 6 97 17 138 28 341 56 535 74 175 16 279 31 475 66 92 17
120 26 143 47 15 14 27 31 27 36 0 6 -26 21 -57 32 l-58 21 95 8 c52 4 90 10
84 12 -6 2 8 23 30 46 23 24 70 80 106 126 115 147 231 286 239 289 12 4 75
-72 286 -342 30 -39 45 -50 63 -48 12 2 22 5 22 7 0 4 -59 129 -188 400 -98
205 -108 231 -94 241 10 6 38 23 63 37 l46 27 447 -326 448 -325 109 11 c165
16 185 27 134 72 -19 16 -71 72 -116 124 -45 52 -86 94 -92 94 -5 0 -3 -8 4
-17 12 -16 12 -17 -2 -5 -9 6 -37 40 -63 75 -47 60 -30 46 27 -23 27 -32 28
-33 12 -5 -9 17 -38 53 -63 81 -26 27 -40 41 -32 30 12 -17 9 -16 -13 3 -27
25 -38 49 -14 35 8 -5 8 -3 -2 9 -7 9 -17 15 -21 12 -11 -7 -31 20 -28 36 2 7
-2 13 -9 14 -16 0 -71 66 -385 460 -145 182 -326 410 -404 507 l-141 177 -515
-642z m37 -939 c91 -77 162 -144 158 -148 -12 -10 -254 -42 -262 -35 -3 3 -40
68 -82 143 l-77 137 42 22 c22 12 44 22 48 23 4 0 82 -64 173 -142z m1680 92
c10 -11 16 -20 13 -20 -3 0 -13 9 -23 20 -10 11 -16 20 -13 20 3 0 13 -9 23
-20z m36 -47 c13 -16 12 -17 -3 -4 -10 7 -18 15 -18 17 0 8 8 3 21 -13z"/>
<path d="M5380 5495 c-135 -13 -330 -31 -435 -40 -104 -10 -191 -18 -193 -20
-2 -1 97 -127 218 -279 l221 -276 525 0 c289 0 524 4 522 8 -1 4 -113 148
-247 320 l-245 312 -60 -1 c-34 -1 -171 -12 -306 -24z"/>
<path d="M3499 5306 c-2 -2 -143 -14 -314 -25 -666 -45 -759 -52 -771 -59 -7
-4 -72 -81 -145 -172 l-132 -165 538 -3 c421 -2 541 1 553 10 22 19 332 405
332 414 0 5 -56 5 -61 0z"/>
<path d="M3515 4607 c-121 -31 -222 -117 -279 -237 -30 -62 -31 -71 -31 -190
0 -119 1 -128 31 -191 55 -115 138 -190 255 -229 53 -18 79 -21 152 -17 76 4
99 10 162 41 160 79 243 229 232 420 -5 108 -29 175 -86 251 -46 61 -111 109
-184 137 -63 24 -187 31 -252 15z m190 -72 c108 -28 198 -108 242 -216 13 -33
18 -70 18 -144 -1 -89 -4 -106 -29 -159 -37 -76 -101 -140 -174 -174 -48 -23
-71 -27 -142 -27 -71 0 -94 4 -141 26 -79 37 -133 90 -171 167 -31 62 -33 73
-33 172 0 93 3 112 27 162 46 99 143 178 241 198 65 12 98 11 162 -5z"/>
<path d="M2122 4178 l3 -423 35 0 35 0 3 345 3 345 178 -354 178 -354 174 351
c96 193 177 351 182 351 4 1 7 -153 7 -341 l-1 -343 33 0 33 0 3 423 2 422
-37 0 -38 0 -178 -356 c-98 -196 -180 -355 -182 -353 -2 2 -82 163 -179 357
l-176 352 -40 0 -40 0 2 -422z"/>
<path d="M4250 4175 l0 -425 35 0 35 0 2 371 3 370 288 -370 c280 -362 288
-371 322 -371 l35 0 0 425 0 425 -35 0 -35 0 -2 -367 -3 -366 -190 244 c-104
134 -232 299 -284 367 -92 118 -96 122 -133 122 l-38 0 0 -425z"/>
<path d="M5130 4515 l0 -85 125 0 125 0 0 -340 0 -340 85 0 85 0 0 340 0 339
126 3 126 3 1 83 2 82 -337 0 -338 0 0 -85z"/>
<path d="M5950 4175 l0 -425 85 0 85 0 2 177 3 176 150 -174 150 -174 114 -3
c65 -1 111 1 109 6 -1 5 -65 76 -140 157 -76 81 -138 151 -138 155 0 4 23 10
52 13 76 9 136 50 170 116 57 108 30 267 -56 338 -67 55 -113 63 -362 63
l-224 0 0 -425z m463 237 c49 -46 41 -139 -14 -167 -20 -11 -63 -15 -154 -15
l-125 0 0 106 0 106 134 -4 c125 -3 136 -5 159 -26z"/>
<path d="M6810 4175 l0 -426 88 3 87 3 3 423 3 422 -91 0 -90 0 0 -425z"/>
<path d="M7210 4175 l0 -425 85 0 84 0 3 143 3 142 155 5 c169 6 203 16 264
76 107 106 97 328 -17 420 -73 58 -101 63 -349 63 l-228 1 0 -425z m447 239
c59 -44 56 -150 -6 -191 -32 -22 -44 -23 -150 -21 l-116 3 -3 104 c-1 58 0
111 3 119 4 11 29 13 124 10 103 -3 124 -6 148 -24z"/>
<path d="M4285 3423 c-26 -48 -61 -112 -77 -140 -22 -40 -26 -53 -15 -53 8 0
24 16 36 35 l20 35 86 0 85 0 17 -35 c9 -19 23 -35 30 -35 13 0 -16 64 -100
218 l-34 64 -48 -89z m52 -101 c-38 -2 -71 -1 -74 1 -2 3 13 35 33 72 l37 66
37 -68 37 -68 -70 -3z"/>
<path d="M4789 3501 c-51 -16 -71 -34 -91 -78 -33 -76 -6 -153 68 -188 45 -21
112 -15 155 16 25 18 29 27 29 70 0 27 -4 49 -10 49 -5 0 -10 -17 -10 -38 0
-45 -20 -68 -71 -82 -75 -22 -149 36 -149 117 0 38 5 50 34 79 29 29 41 34 83
34 28 0 58 -7 72 -16 15 -11 26 -13 33 -6 23 23 -93 58 -143 43z"/>
<path d="M3481 3359 c39 -77 72 -139 74 -137 2 2 35 65 75 141 52 99 67 137
56 137 -10 0 -38 -43 -75 -117 l-59 -118 -57 118 c-32 65 -64 117 -72 117 -9
0 11 -49 58 -141z"/>
<path d="M3930 3365 c0 -83 4 -135 10 -135 6 0 10 52 10 135 0 83 -4 135 -10
135 -6 0 -10 -52 -10 -135z"/>
<path d="M5210 3365 l0 -135 105 0 c63 0 105 4 105 10 0 6 -37 10 -90 10 l-90
0 0 60 0 60 71 0 c44 0 68 4 64 10 -3 6 -35 10 -71 10 l-64 0 0 45 0 45 90 0
c53 0 90 4 90 10 0 6 -42 10 -105 10 l-105 0 0 -135z"/>
<path d="M5680 3365 c0 -168 18 -183 22 -18 l3 117 98 -117 c54 -64 104 -117
112 -117 12 0 15 23 15 135 0 112 -2 135 -15 135 -12 0 -15 -22 -17 -115 l-3
-114 -95 114 c-52 63 -100 115 -107 115 -10 0 -13 -31 -13 -135z"/>
<path d="M6222 3488 c-27 -14 -38 -51 -24 -83 9 -18 29 -29 84 -46 40 -12 79
-26 86 -32 19 -15 14 -55 -9 -68 -22 -11 -112 -8 -156 6 -31 10 -29 -9 2 -23
48 -22 118 -24 154 -5 43 23 56 43 47 76 -7 30 -38 49 -111 66 -48 12 -85 35
-85 53 0 4 9 17 20 28 22 22 97 28 131 10 11 -6 24 -8 31 -4 7 4 2 12 -13 20
-29 16 -125 17 -157 2z"/>
</g>
</svg>
